<?xml version="1.0" encoding="UTF-8" standalone="no"?>
<svg width="100" height="100" viewBox="0 0 100 100" xmlns="http://www.w3.org/2000/svg">
  <defs>
    <pattern id="batik" patternUnits="userSpaceOnUse" width="100" height="100">
      <path d="M20,10 C30,0 40,0 50,10 C60,20 70,20 80,10" stroke="#ffffff" stroke-width="1" fill="none" stroke-opacity="0.2"/>
      <path d="M20,30 C30,20 40,20 50,30 C60,40 70,40 80,30" stroke="#ffffff" stroke-width="1" fill="none" stroke-opacity="0.2"/>
      <path d="M20,50 C30,40 40,40 50,50 C60,60 70,60 80,50" stroke="#ffffff" stroke-width="1" fill="none" stroke-opacity="0.2"/>
      <path d="M20,70 C30,60 40,60 50,70 C60,80 70,80 80,70" stroke="#ffffff" stroke-width="1" fill="none" stroke-opacity="0.2"/>
      <path d="M20,90 C30,80 40,80 50,90 C60,100 70,100 80,90" stroke="#ffffff" stroke-width="1" fill="none" stroke-opacity="0.2"/>
      
      <path d="M0,10 C10,0 20,0 30,10" stroke="#ffffff" stroke-width="1" fill="none" stroke-opacity="0.2"/>
      <path d="M0,30 C10,20 20,20 30,30" stroke="#ffffff" stroke-width="1" fill="none" stroke-opacity="0.2"/>
      <path d="M0,50 C10,40 20,40 30,50" stroke="#ffffff" stroke-width="1" fill="none" stroke-opacity="0.2"/>
      <path d="M0,70 C10,60 20,60 30,70" stroke="#ffffff" stroke-width="1" fill="none" stroke-opacity="0.2"/>
      <path d="M0,90 C10,80 20,80 30,90" stroke="#ffffff" stroke-width="1" fill="none" stroke-opacity="0.2"/>
      
      <circle cx="10" cy="10" r="3" fill="#ffffff" fill-opacity="0.15"/>
      <circle cx="30" cy="10" r="3" fill="#ffffff" fill-opacity="0.15"/>
      <circle cx="50" cy="10" r="3" fill="#ffffff" fill-opacity="0.15"/>
      <circle cx="70" cy="10" r="3" fill="#ffffff" fill-opacity="0.15"/>
      <circle cx="90" cy="10" r="3" fill="#ffffff" fill-opacity="0.15"/>
      
      <circle cx="10" cy="30" r="3" fill="#ffffff" fill-opacity="0.15"/>
      <circle cx="30" cy="30" r="3" fill="#ffffff" fill-opacity="0.15"/>
      <circle cx="50" cy="30" r="3" fill="#ffffff" fill-opacity="0.15"/>
      <circle cx="70" cy="30" r="3" fill="#ffffff" fill-opacity="0.15"/>
      <circle cx="90" cy="30" r="3" fill="#ffffff" fill-opacity="0.15"/>
      
      <circle cx="10" cy="50" r="3" fill="#ffffff" fill-opacity="0.15"/>
      <circle cx="30" cy="50" r="3" fill="#ffffff" fill-opacity="0.15"/>
      <circle cx="50" cy="50" r="3" fill="#ffffff" fill-opacity="0.15"/>
      <circle cx="70" cy="50" r="3" fill="#ffffff" fill-opacity="0.15"/>
      <circle cx="90" cy="50" r="3" fill="#ffffff" fill-opacity="0.15"/>
      
      <circle cx="10" cy="70" r="3" fill="#ffffff" fill-opacity="0.15"/>
      <circle cx="30" cy="70" r="3" fill="#ffffff" fill-opacity="0.15"/>
      <circle cx="50" cy="70" r="3" fill="#ffffff" fill-opacity="0.15"/>
      <circle cx="70" cy="70" r="3" fill="#ffffff" fill-opacity="0.15"/>
      <circle cx="90" cy="70" r="3" fill="#ffffff" fill-opacity="0.15"/>
      
      <circle cx="10" cy="90" r="3" fill="#ffffff" fill-opacity="0.15"/>
      <circle cx="30" cy="90" r="3" fill="#ffffff" fill-opacity="0.15"/>
      <circle cx="50" cy="90" r="3" fill="#ffffff" fill-opacity="0.15"/>
      <circle cx="70" cy="90" r="3" fill="#ffffff" fill-opacity="0.15"/>
      <circle cx="90" cy="90" r="3" fill="#ffffff" fill-opacity="0.15"/>
    </pattern>
  </defs>
  <rect width="100%" height="100%" fill="url(#batik)" />
</svg>
